<svg xmlns="http://www.w3.org/2000/svg" xmlns:xlink="http://www.w3.org/1999/xlink" aria-hidden="true" role="img" class="iconify iconify--logos" width="35.93" height="32" preserveAspectRatio="xMidYMid meet" viewBox="0 0 256 228"><path fill="#00D8FF" d="M210.483 73.824a171.49 171.49 0 0 0-8.24-2.597c.465-1.9.893-3.777 1.273-5.621c6.238-30.281 2.16-54.676-11.769-62.708c-13.355-7.7-35.196.329-57.254 19.526a171.23 171.23 0 0 0-6.375 5.848a155.866 155.866 0 0 0-4.241-3.917C100.759 3.829 77.587-4.822 63.673 3.233C50.33 10.957 46.379 33.89 51.995 62.588a170.974 170.974 0 0 0 1.892 8.438c-3.138.774-6.17 1.659-9.062 2.68c-27.349 9.734-44.604 24.773-44.604 39.214c0 14.846 18.368 30.753 47.041 40.855c-3.598 11.06-6.51 22.168-8.49 33.065c-5.166 28.275-1.315 50.496 12.015 58.245c13.606 7.879 36.372-.365 58.723-19.81c1.91-1.608 3.83-3.282 5.749-5.023a172.68 172.68 0 0 0 6.25 5.744c21.644 17.778 43.61 25.484 56.97 17.797c13.67-7.88 17.661-31.17 12.22-59.065c-1.6-8.147-3.89-16.355-6.82-24.433a177.15 177.15 0 0 0 45.39-16.085c27.1-13.82 43.65-28.88 43.65-42.78c0-14.43-17.59-29.57-45.35-39.43zm-17.07 71.01c-8.29 2.71-16.99 4.95-25.96 6.71c-3.06-9.43-6.78-18.66-11.1-27.56c4.11-8.49 7.56-17.18 10.31-25.99c9.03 1.73 17.69 4.01 25.84 6.81c20.62 6.63 33.47 16.17 33.47 23.86c0 7.92-13.36 17.85-34.56 24.17zm-102.88 54.17c-14.25 8.13-27.57 11.52-37.3 9.2c-5.1-1.17-8.75-4.52-10.72-9.68c-4.21-10.94-1.04-28.69 8.39-49.17c2.21-4.82 4.72-9.59 7.5-14.28c8.63 4.92 17.74 9.2 27.24 12.76c1.28 7.08 2.95 14.09 5.01 20.96c-1.12 5.61-1.86 11.23-2.12 16.79c-.07 4.54.23 9.04.89 13.42zm-22.65-97.17c-8.73-2.76-17.1-6-25.02-9.63c3.44-8.43 7.56-16.65 12.3-24.54c4.74-7.89 9.89-15.36 15.38-22.35c7.86 3.45 16.11 6.38 24.69 8.77c-2.65 8.62-4.72 17.4-6.19 26.25c-1.47 8.85-2.3 17.77-2.5 26.66c-4.91 2.24-9.69 4.64-14.34 7.19c-1.48-5.54-2.75-11.15-3.82-16.85c-1.07-5.7-1.84-11.47-2.5-17.26zm65.2 29.97c-4.04.16-8.13.16-12.21 0c1.23-4.16 2.63-8.27 4.19-12.31c1.56 4.04 2.96 8.15 4.19 12.31c1.28 4.33 2.38 8.72 3.29 13.16c-1.86.27-3.74.49-5.63.65c-1.89-.16-3.77-.38-5.63-.65c.91-4.44 2.01-8.83 3.29-13.16zM151.6 52.85c5.72 3.13 11.25 6.62 16.54 10.43c-5.29 3.81-10.82 7.3-16.54 10.43c-5.72-3.13-11.25-6.62-16.54-10.43c5.29-3.81 10.82-7.3 16.54-10.43zm26.87 37.19c4.65 2.55 9.17 5.31 13.55 8.26c-8.1 8.22-17.03 15.72-26.66 22.4c-2.19-7.89-4.9-15.58-8.1-22.99c7.11-2.75 14.02-5.97 20.65-9.67c.19 1.33.35 2.67.47 4.01c.03 0 .06-.01.09-.01zm-26.87 74.76c-5.72-3.13-11.25-6.62-16.54-10.43c5.29-3.81 10.82-7.3 16.54-10.43c5.72 3.13 11.25 6.62 16.54 10.43c-5.29 3.81-10.82 7.3-16.54 10.43zM120.12 191.2c-8.63-4.92-17.74-9.2-27.24-12.76c-1.28-7.08-2.95-14.09-5.01-20.96c7.87-2.23 15.96-4.03 24.24-5.39c2.19 7.89 4.9 15.58 8.1 22.99c-4.91 1.9-9.74 3.99-14.47 6.26c4.73-2.27 9.56-4.36 14.47-6.26c2.19 7.89 4.9 15.58 8.1 22.99c-7.87 2.23-15.96 4.03-24.24 5.39c1.28 7.08 2.95 14.09 5.01 20.96c-1.7-1.08-3.39-2.19-5.06-3.33c1.67 1.14 3.36 2.25 5.06 3.33c8.63 4.92 17.74 9.2 27.24 12.76c-1.28 7.08-2.95 14.09-5.01 20.96c-7.87 2.23-15.96 4.03-24.24 5.39c-2.19-7.89-4.9-15.58-8.1-22.99c4.91-1.9 9.74-3.99 14.47-6.26c-4.73 2.27-9.56 4.36-14.47 6.26c-2.19-7.89-4.9-15.58-8.1-22.99c7.87-2.23 15.96-4.03 24.24-5.39c1.28-7.08 2.95-14.09 5.01-20.96z"/></svg>