<svg xmlns="http://www.w3.org/2000/svg" xmlns:xlink="http://www.w3.org/1999/xlink" aria-hidden="true" role="img" class="iconify iconify--logos" width="31.88" height="32" preserveAspectRatio="xMidYMid meet" viewBox="0 0 256 257"><defs><linearGradient id="IconifyId1813088fe1fbc01fb466" x1="-.828%" x2="57.636%" y1="7.652%" y2="78.411%"><stop offset="0" stop-color="#41D1FF"/><stop offset="1" stop-color="#BD34FE"/></linearGradient><linearGradient id="IconifyId1813088fe1fbc01fb467" x1="43.376%" x2="50.316%" y1="2.242%" y2="89.03%"><stop offset="0" stop-color="#FFEA83"/><stop offset=".083" stop-color="#FFDD35"/><stop offset="1" stop-color="#FFA800"/></linearGradient></defs><path fill="url(#IconifyId1813088fe1fbc01fb466)" d="M255.153 37.938L134.897 252.976c-2.483 4.44-8.862 4.466-11.382.048L.875 37.958c-2.746-4.814 1.371-10.646 6.827-9.67l120.385 21.517a6.537 6.537 0 0 0 2.322-.004l117.867-21.483c5.438-.991 9.397 4.836 6.777 9.62z"/><path fill="url(#IconifyId1813088fe1fbc01fb467)" d="M185.432.063L96.44 17.501a3.268 3.268 0 0 0-2.634 3.014l-5.474 92.456a3.268 3.268 0 0 0 3.997 3.378l24.777-5.718c2.318-.535 4.413 1.507 3.936 3.838l-7.361 36.047c-.495 2.426 1.782 4.5 4.151 3.78l15.906-4.828c2.372-.72 4.652 1.36 4.15 3.788l-12.094 58.92c-1.03 5.023 4.978 8.146 8.43 4.262l68.601-75.453c2.595-2.856 1.155-7.584-2.59-8.125l-25.67-3.73c-2.444-.355-3.71-3.128-2.432-5.166l37.254-58.14c1.336-2.085-.09-4.836-2.63-4.836h-31.634c-2.238 0-4.04-1.87-3.835-4.1l8.274-90.407c.195-2.13 1.988-3.778 4.128-3.73l62.02 1.306c2.318.049 4.065 2.128 3.69 4.424l-9.924 62.64c-.388 2.452 2.262 4.37 4.548 3.37l24.692-10.57c2.201-.943 4.743.591 4.736 3.005l-.39 51.178c-.006 2.394-2.498 3.931-4.658 2.942l-25.16-11.83c-2.132-1.003-4.548.604-4.59 2.944l-1.23 68.486c-.043 2.397 2.35 3.99 4.473 2.98l29.904-14.92c2.289-1.143 5.025.324 5.234 2.832l3.173 38.025c.198 2.37-2.006 4.34-4.382 4.08l-62.01-6.647c-2.324-.249-4.134-2.169-3.94-4.5l3.644-43.397c.205-2.439-2.018-4.493-4.463-4.192l-23.254 2.97c-2.356.301-4.327-1.786-3.746-4.09l14.96-63.089c.558-2.35-1.442-4.49-3.84-4.192l-22.516 2.834c-2.373.299-4.338-1.79-3.76-4.103l9.614-40.612c.547-2.31-1.433-4.422-3.796-4.15l-34.96 3.97c-2.354.267-4.303-1.82-3.756-4.13l6.278-28.54c.525-2.387-1.478-4.548-3.899-4.288l-26.786 2.81c-2.343.246-4.255-1.824-3.76-4.13l5.838-27.66c.48-2.274-1.387-4.37-3.706-4.193L53.05 30.26c-2.296.175-4.19-1.77-3.92-4.062l3.27-28.37c.263-2.278-1.603-4.274-3.89-4.193l-35.38 1.26c-2.356.084-4.206-2.032-3.72-4.35L24.65 1.92c.466-2.237 2.596-3.685 4.86-3.33l120.86 18.17c2.27.34 3.92 2.38 3.57 4.65l-2.1 13.76c-.35 2.29 1.31 4.37 3.6 4.63l57.18 6.45c2.3.26 4.22 1.9 4.66 4.17l5.84 30.18c.48 2.49-1.31 4.89-3.83 5.23l-30.72 4.12c-2.41.32-3.96 2.7-3.32 5.06l10.3 38.35c.72 2.68-1.52 5.27-4.27 5.03l-28.42-2.55c-2.41-.22-4.47 1.73-4.38 4.16l1.38 42.53c.09 2.71-2.44 4.73-5.09 3.99l-27.83-7.51c-2.25-.61-4.55.91-4.95 3.2l-6.18 36.39c-.42 2.48 1.63 4.71 4.12 4.56l63.65-3.8c2.49-.15 4.47 2.08 4.02 4.54l-5.26 30.5c-.42 2.44 1.52 4.66 4 4.59l31.9-.96c2.4-.07 4.38 1.9 4.2 4.3l-2.94 41.6c-.18 2.57-2.51 4.46-5.07 4.03l-60.7-10.28c-2.38-.4-4.51 1.6-4.29 4l6.44 72.06c.22 2.5-1.9 4.59-4.41 4.38l-33.28-2.86c-2.36-.2-4.22-2.14-4.06-4.51l4.66-76.1c.14-2.3-1.71-4.24-4.02-4.24h-29.6c-2.41 0-4.34-2.04-4.12-4.44l5.98-66.2c.22-2.44-1.74-4.54-4.2-4.46l-38.62 1.18c-2.48.08-4.44-2.02-4.24-4.48l6.92-88.5c.2-2.57 2.53-4.48 5.11-4.08l68.2 10.8c2.48.39 4.72-1.54 4.6-4.06l-2.48-52.1c-.12-2.54 2.12-4.6 4.66-4.42l44.7 3.18c2.55.18 4.43-2.32 3.68-4.78l-12.72-43.8c-.71-2.46 1.2-4.93 3.74-4.93h29.2c2.46 0 4.37-2.2 3.96-4.63l-6.72-41.8c-.4-2.48 1.57-4.72 4.08-4.64l66.92 2.08c2.54.08 4.44-2.32 3.68-4.78L184.3 7.57c-.75-2.46 1.16-4.94 3.7-4.94h5.1c2.54 0 4.44 2.48 3.68 4.94l-13.4 46.7c-.76 2.46 1.14 4.86 3.68 4.78l55.06-1.72c2.54-.08 4.44 2.32 3.68 4.78l-12.72 43.8c-.75 2.46 1.14 4.86 3.68 4.78l25.54-.8c2.54-.08 4.44 2.32 3.68 4.78l-6.36 22c-.75 2.46 1.14 4.86 3.68 4.78l5.62-.18c2.54-.08 4.44 2.32 3.68 4.78l-9.56 33.2c-.75 2.46 1.14 4.86 3.68 4.78l14.28-.44c2.54-.08 4.44 2.32 3.68 4.78l-6.36 22c-.75 2.46 1.14 4.86 3.68 4.78l3.4-.1c2.54-.08 4.44 2.32 3.68 4.78l-6.36 22c-.75 2.46 1.14 4.86 3.68 4.78l1.18-.04c2.54-.08 4.44 2.32 3.68 4.78l-6.36 22c-.75 2.46 1.14 4.86 3.68 4.78l.62-.02c2.54-.08 4.44 2.32 3.68 4.78l-6.36 22c-.75 2.46 1.14 4.86 3.68 4.78z"/></svg>